<?xml version="1.0" encoding="UTF-8" standalone="no"?>
<svg
   version="1.0"
   width="700pt"
   height="550pt"
   viewBox="0 0 700 550"
   preserveAspectRatio="xMidYMid"
   id="svg158"
   sodipodi:docname="logo.svg"
   inkscape:version="1.4.2 (ebf0e940d0, 2025-05-08)"
   xmlns:inkscape="http://www.inkscape.org/namespaces/inkscape"
   xmlns:sodipodi="http://sodipodi.sourceforge.net/DTD/sodipodi-0.dtd"
   xmlns="http://www.w3.org/2000/svg"
   xmlns:svg="http://www.w3.org/2000/svg">
  <defs
     id="defs158" />
  <sodipodi:namedview
     id="namedview158"
     pagecolor="#000000"
     bordercolor="#ffffff"
     borderopacity="1"
     inkscape:showpageshadow="0"
     inkscape:pageopacity="0"
     inkscape:pagecheckerboard="true"
     inkscape:deskcolor="#505050"
     inkscape:document-units="pt"
     inkscape:zoom="1.0337293"
     inkscape:cx="784.53808"
     inkscape:cy="443.05603"
     inkscape:window-width="2560"
     inkscape:window-height="1371"
     inkscape:window-x="26"
     inkscape:window-y="23"
     inkscape:window-maximized="0"
     inkscape:current-layer="g158" />
  <metadata
     id="metadata1">
Created by potrace 1.16, written by Peter Selinger 2001-2019
</metadata>
  <g
     transform="matrix(0.1,0,0,-0.1,0,1024)"
     fill="#000000"
     stroke="none"
     id="g158">
    <g
       id="g159"
       transform="translate(-1645.9581,2214.9974)">
      <path
         d="m 4212,7895 c -17,-37 -15,-111 4,-151 22,-46 72,-88 130,-109 165,-59 207,-102 217,-224 7,-84 26,-123 75,-155 60,-40 101,-42 186,-11 60,22 85,26 120,21 41,-6 99,-39 86,-48 -3,-2 -44,-16 -91,-31 -112,-36 -177,-82 -266,-191 -87,-107 -103,-149 -103,-269 0,-80 -2,-92 -25,-119 -17,-20 -25,-42 -25,-66 0,-29 -5,-39 -24,-48 -19,-9 -32,-5 -85,27 -35,21 -100,50 -144,65 -84,28 -137,67 -137,100 0,10 22,38 49,63 60,57 71,78 71,135 0,35 -7,54 -33,88 -69,90 -131,115 -341,137 -74,7 -113,17 -155,38 -57,28 -63,37 -105,135 -18,44 -53,64 -134,79 -111,21 -157,67 -156,156 1,29 -2,53 -7,53 -16,0 -44,-97 -43,-155 0,-101 32,-138 140,-165 38,-9 84,-39 84,-54 0,-3 21,-38 47,-76 79,-120 178,-164 316,-141 112,19 197,-19 197,-87 0,-37 -12,-46 -80,-62 -79,-19 -120,-62 -120,-127 0,-109 66,-157 284,-207 137,-32 151,-58 68,-132 -88,-79 -181,-225 -202,-319 -8,-36 -7,-59 5,-104 8,-33 15,-73 15,-90 0,-41 27,-118 56,-161 l 24,-36 -20,-39 c -30,-58 -26,-99 13,-141 26,-29 38,-35 62,-32 l 30,4 -32,19 c -34,21 -53,52 -53,86 0,27 28,79 42,79 6,0 31,-18 55,-41 46,-42 72,-47 37,-6 -11,12 -31,43 -45,70 -13,26 -27,47 -30,47 -3,0 -15,21 -26,48 -46,104 -44,101 -37,52 4,-25 13,-57 20,-72 22,-43 1,-33 -24,11 -26,45 -58,251 -48,304 10,55 101,196 174,270 36,37 72,67 79,67 23,0 20,-72 -5,-110 l -15,-25 26,18 c 33,21 38,21 31,0 -5,-15 -4,-16 5,-3 16,22 13,85 -4,128 -33,78 -88,113 -227,143 -108,23 -168,49 -203,91 -35,41 -41,74 -22,114 20,40 48,60 105,73 24,5 52,17 62,26 48,44 26,121 -46,155 -40,20 -54,21 -153,15 -123,-8 -160,0 -228,48 -23,16 -57,54 -75,85 -53,88 -85,121 -131,132 -72,19 -98,32 -111,59 -20,39 -28,87 -21,122 l 7,31 18,-40 c 24,-52 77,-87 159,-103 77,-15 113,-43 130,-101 18,-58 77,-113 144,-133 28,-9 96,-20 150,-25 123,-12 171,-24 221,-57 74,-48 110,-109 99,-168 -3,-15 -30,-50 -61,-80 -47,-45 -56,-59 -56,-89 0,-61 27,-81 200,-146 63,-23 98,-45 150,-91 86,-76 105,-84 150,-63 45,21 43,27 -7,19 -34,-6 -44,-3 -65,16 -32,30 -18,39 68,39 48,0 94,-9 163,-31 85,-27 105,-39 169,-95 82,-72 119,-119 145,-190 29,-75 33,-123 17,-174 l -14,-45 -1,55 c -2,109 -18,80 -24,-45 -5,-84 -12,-135 -23,-156 -22,-44 -25,-32 -8,34 10,40 12,66 5,89 l -9,33 -1,-35 c -2,-52 -28,-141 -51,-172 -24,-32 -26,-46 -5,-28 8,7 15,9 15,4 0,-4 11,3 24,15 22,20 25,21 40,6 22,-23 20,-71 -4,-88 -23,-16 -40,-57 -40,-96 0,-31 -19,-54 -37,-43 -6,4 -18,24 -26,44 -38,91 -137,37 -137,-74 0,-18 -3,-44 -7,-56 -8,-31 -23,-9 -23,34 0,73 -69,67 -92,-8 -7,-26 -12,-101 -13,-185 0,-100 -4,-146 -12,-154 -11,-10 -13,17 -13,137 0,122 -3,155 -18,184 -20,42 -51,46 -70,10 -10,-19 -12,-73 -10,-220 3,-168 1,-195 -12,-195 -13,0 -16,30 -20,190 -4,105 -11,201 -17,215 -15,35 -49,64 -64,54 -9,-5 -6,-10 9,-15 12,-5 22,-16 22,-24 0,-9 -5,-13 -10,-10 -20,13 -52,-8 -67,-43 -8,-20 -14,-60 -13,-91 1,-31 2,-65 0,-76 l -1,-20 -9,20 c -5,11 -9,32 -9,47 -1,33 -18,45 -38,25 -29,-28 -36,-164 -18,-336 11,-112 13,-165 6,-184 -12,-30 -36,-36 -45,-11 -9,22 -8,24 9,24 8,0 15,5 15,10 0,6 -6,10 -14,10 -12,0 -14,40 -13,243 1,167 -2,250 -10,267 -10,20 -12,-6 -13,-140 -1,-91 -5,-203 -9,-250 -9,-110 0,-175 27,-202 18,-18 25,-20 46,-10 40,18 51,73 37,180 -10,84 -14,359 -4,317 3,-11 12,-28 21,-38 14,-16 17,-16 38,-2 26,17 24,19 38,-64 6,-35 66,-190 97,-253 15,-29 17,-43 9,-63 -6,-15 -10,-44 -10,-65 0,-33 6,-43 34,-65 23,-17 38,-40 46,-71 8,-27 23,-52 37,-61 31,-21 38,-12 18,26 -20,40 -6,40 20,1 19,-29 35,-39 35,-22 0,4 -7,18 -16,30 -9,13 -14,25 -13,26 2,2 24,-5 48,-15 29,-13 41,-24 38,-33 -10,-24 21,-26 39,-3 l 16,22 -7,-22 c -3,-13 -1,-38 6,-56 11,-31 9,-40 -24,-109 -21,-45 -38,-98 -42,-134 l -6,-59 30,46 c 16,26 33,67 36,93 4,27 18,60 31,76 14,16 24,41 24,58 0,24 10,40 47,71 25,23 44,43 42,45 -2,2 -42,11 -89,20 -162,32 -278,78 -306,122 -24,35 -6,51 34,30 115,-60 438,-135 405,-94 -16,19 5,52 48,73 16,9 29,22 29,31 0,29 58,129 81,139 13,6 36,29 52,52 21,31 39,46 69,55 31,9 44,20 54,44 13,31 62,79 72,70 2,-3 1,-25 -2,-49 -6,-39 -13,-49 -63,-86 -48,-35 -93,-87 -93,-106 0,-3 9,-5 20,-5 13,0 20,7 20,20 0,27 18,25 22,-2 3,-23 13,-24 72,-15 6,1 12,-6 14,-15 2,-13 -3,-18 -17,-18 -12,0 -21,-5 -21,-11 0,-7 10,-9 27,-5 14,4 39,2 55,-5 24,-10 32,-9 48,6 20,18 20,17 20,-23 0,-23 0,-45 -1,-49 0,-5 -10,-7 -22,-6 -18,2 -17,0 7,-13 l 29,-16 -24,-15 c -24,-14 -23,-14 10,-8 29,4 67,20 154,63 5,2 7,-10 5,-28 -3,-33 -28,-53 -78,-64 -53,-12 -58,-23 -23,-57 l 32,-32 12,27 c 7,15 27,33 45,41 18,7 40,28 49,45 14,27 15,39 4,79 -11,44 -10,53 16,117 15,38 35,83 45,99 10,17 29,66 44,110 14,44 37,94 51,110 l 24,30 1,-131 c 0,-138 7,-160 47,-152 34,6 45,47 39,146 -7,119 8,234 35,279 16,26 24,31 30,21 7,-11 9,-11 9,1 0,7 14,29 31,49 29,33 31,39 24,86 -13,97 -2,192 27,238 25,39 27,67 8,126 -9,31 -23,86 -29,122 -19,104 -61,180 -142,253 l -70,64 26,31 c 14,17 46,40 70,52 49,24 72,24 203,0 145,-26 244,24 276,141 20,69 16,97 -21,153 -30,46 -25,77 19,109 21,16 49,21 127,26 109,7 136,19 178,80 28,42 47,133 38,185 -20,112 1,146 124,196 42,17 88,44 103,60 27,30 45,88 34,115 -8,23 -19,18 -36,-17 -20,-42 -67,-64 -165,-78 -99,-13 -158,-41 -195,-92 l -29,-39 6,-127 c 6,-124 5,-128 -18,-155 -18,-21 -39,-30 -84,-37 -121,-20 -178,-42 -221,-85 -44,-44 -54,-75 -54,-160 0,-46 -4,-58 -30,-83 -37,-37 -98,-52 -205,-50 -99,2 -152,-19 -230,-93 -30,-28 -60,-49 -67,-46 -8,2 -21,28 -30,57 l -17,52 38,52 c 59,80 60,80 191,86 103,5 121,9 163,33 83,49 96,104 45,196 -31,57 -32,59 -15,85 10,14 45,38 80,54 110,50 167,149 136,235 -18,53 -39,60 -39,14 0,-24 -9,-46 -26,-66 -34,-41 -49,-48 -122,-60 -80,-13 -130,-37 -153,-75 -33,-53 -20,-138 26,-176 29,-24 46,-67 36,-93 -19,-49 -56,-62 -178,-62 -100,0 -114,-2 -142,-22 -16,-13 -32,-23 -34,-23 -2,0 -7,23 -10,51 -10,79 -117,283 -170,323 -18,13 -75,47 -128,75 -77,41 -111,53 -170,60 -72,9 -74,11 -117,60 -53,61 -121,87 -201,76 -63,-9 -127,9 -163,45 -25,26 -28,35 -28,100 0,85 -16,129 -61,163 -47,36 -78,46 -202,67 -161,27 -219,66 -223,150 -2,51 -8,57 -22,25 z m 128,-168 c 28,-9 92,-24 143,-32 163,-28 217,-81 217,-211 0,-58 4,-76 22,-99 36,-46 91,-65 191,-65 122,0 151,-18 219,-134 15,-25 33,-46 39,-46 8,0 8,4 -1,15 -11,13 -6,15 36,15 40,0 73,-12 177,-62 l 128,-62 36,-66 c 97,-176 115,-229 105,-313 -6,-53 -21,-45 -20,11 0,53 -15,113 -37,152 -20,36 -18,16 6,-56 15,-43 19,-74 15,-98 -10,-53 -24,-52 -20,2 l 4,47 -14,-58 c -14,-61 -62,-147 -85,-155 -11,-4 -13,2 -8,24 13,69 17,109 8,89 -20,-47 -32,-96 -24,-107 4,-7 6,-20 5,-28 -1,-8 11,-23 28,-32 52,-30 29,-76 -33,-64 -26,5 -42,1 -71,-19 -20,-14 -45,-25 -55,-25 -10,0 -35,-13 -56,-30 -21,-16 -48,-30 -60,-30 -15,0 -34,-14 -53,-37 l -30,-38 3,38 c 2,22 11,48 21,58 17,19 16,19 -14,13 -25,-5 -48,3 -119,41 -48,25 -77,37 -63,26 14,-11 55,-34 91,-52 57,-28 65,-35 61,-56 -6,-29 -13,-29 -42,2 -13,14 -28,25 -34,25 -5,0 4,-15 22,-33 18,-18 32,-37 32,-42 0,-6 -24,14 -53,43 -82,83 -174,158 -214,177 -21,10 -54,35 -74,56 -20,22 -42,39 -50,39 -8,-1 4,-16 26,-35 22,-18 36,-37 33,-41 -4,-4 -30,3 -58,15 -28,12 -74,23 -101,23 -43,1 -50,4 -55,25 -5,18 1,32 22,54 28,29 29,33 26,114 -5,96 14,167 56,217 l 27,32 6,-35 c 6,-34 6,-33 8,9 1,38 8,51 59,104 64,67 95,86 196,117 72,22 87,21 66,-4 -19,-23 6,-19 31,6 36,36 7,98 -58,125 -49,21 -146,18 -185,-6 -66,-40 -174,-17 -210,45 -9,17 -21,65 -27,108 -15,124 -64,178 -198,221 -92,30 -163,96 -163,153 0,21 2,20 35,-15 22,-26 52,-44 85,-55 z m 2703,-329 c -10,-18 -30,-38 -44,-45 -13,-6 -54,-25 -91,-42 -37,-18 -80,-47 -98,-68 -29,-32 -31,-40 -26,-82 19,-138 19,-148 -7,-205 -36,-78 -69,-96 -175,-96 -90,0 -136,-14 -171,-51 -27,-30 -27,-78 1,-114 30,-38 36,-120 13,-169 -34,-71 -162,-115 -255,-88 l -35,10 30,1 c 46,2 101,20 116,38 13,15 12,15 -10,3 -14,-7 -79,-19 -146,-26 -142,-16 -196,-36 -247,-91 -41,-47 -53,-86 -43,-149 5,-36 13,-49 38,-65 46,-27 58,-23 20,7 -39,30 -44,52 -8,28 35,-23 42,-11 11,19 -31,31 -36,63 -8,48 41,-22 114,-110 132,-159 11,-29 15,-52 10,-52 -15,0 -50,38 -50,55 0,8 -4,15 -10,15 -19,0 11,-55 46,-85 26,-22 38,-44 48,-85 8,-30 20,-69 27,-86 14,-34 8,-69 -16,-99 l -17,-20 8,20 c 17,48 16,80 -5,99 -20,18 -22,18 -39,3 -27,-25 -40,-21 -51,16 -9,30 -9,31 -10,5 -1,-25 4,-33 44,-66 16,-14 21,-37 6,-27 -26,16 -94,-113 -75,-142 14,-22 27,-19 41,8 l 13,24 v -23 c 0,-17 5,-23 18,-20 13,2 18,17 23,63 3,33 6,54 7,46 1,-8 8,-19 16,-25 12,-9 11,-21 -7,-81 -23,-74 -57,-128 -57,-89 -1,17 -2,16 -14,-4 l -13,-24 -15,24 c -9,13 -19,20 -23,16 -4,-4 -3,-13 3,-21 13,-16 -1,-43 -17,-32 -7,4 -9,16 -5,27 5,16 3,20 -8,16 -8,-4 -20,2 -26,12 -7,11 -19,16 -30,13 -12,-3 -22,2 -25,11 -7,19 8,30 29,22 10,-4 14,-1 12,6 -6,19 -46,22 -89,8 -34,-11 -42,-10 -73,8 -20,12 -36,17 -36,12 0,-5 -14,-7 -32,-3 -22,4 -29,3 -24,-5 4,-7 16,-12 27,-12 11,0 37,-9 59,-20 22,-11 49,-20 61,-20 18,0 19,-2 9,-15 -8,-9 -9,-15 -2,-15 6,0 14,5 17,10 10,16 22,3 28,-29 7,-35 39,-56 64,-42 12,6 20,5 29,-7 10,-14 14,-14 28,-3 13,11 20,11 41,-3 14,-9 25,-12 25,-6 0,5 9,10 19,10 14,0 21,9 26,31 5,23 9,28 16,18 18,-28 8,-53 -35,-93 -70,-64 -79,-95 -85,-291 -5,-141 -9,-170 -21,-170 -8,0 -16,8 -18,17 -2,13 1,16 12,12 12,-4 16,0 16,16 0,11 -4,18 -10,15 -6,-4 -10,36 -10,112 -1,121 -13,177 -45,213 -9,10 -12,21 -7,24 13,8 62,-32 62,-50 0,-8 5,-14 10,-14 6,0 10,15 9,33 0,26 -2,29 -9,12 -7,-18 -9,-18 -15,-3 -10,25 -59,42 -83,29 -21,-11 -25,-21 -37,-78 -10,-52 -32,-40 -39,21 -7,55 -23,78 -62,90 -31,9 -54,-14 -68,-69 -9,-39 -17,-51 -34,-53 -19,-3 -22,1 -22,27 0,17 5,31 10,31 16,0 12,20 -5,27 -9,3 -24,-2 -34,-11 -23,-21 -30,-20 -24,4 3,11 19,32 35,46 38,31 31,42 -7,12 -52,-41 -58,-72 -64,-334 -5,-184 -9,-245 -20,-258 -11,-13 -17,-14 -29,-4 -12,11 -13,37 -7,173 13,287 7,374 -29,428 -12,17 -34,36 -49,41 -23,9 -31,6 -54,-16 -23,-23 -27,-38 -35,-130 -10,-105 -17,-126 -38,-113 -9,6 -11,30 -6,91 11,139 -9,191 -57,146 l -23,-21 -37,39 c -43,46 -45,61 -17,115 17,34 19,51 14,112 -5,52 -2,84 9,120 17,54 35,141 47,225 14,103 91,198 189,234 25,10 56,26 68,37 12,11 49,23 90,30 76,12 209,14 220,3 14,-14 -22,-27 -62,-22 -21,3 -53,2 -70,-2 -25,-6 -18,-8 35,-13 l 65,-5 -33,-13 c -47,-19 -27,-37 22,-21 24,8 54,33 89,73 124,145 150,159 307,167 182,9 230,45 230,170 0,116 55,168 208,199 103,21 147,43 179,91 29,42 30,102 2,172 -22,57 -20,81 12,122 31,39 85,63 172,75 76,11 157,42 157,61 0,6 5,10 11,10 6,0 3,-14 -8,-32 z m -723,-217 c -15,-58 -53,-97 -131,-136 -106,-54 -119,-86 -69,-170 38,-65 38,-89 -3,-130 -46,-46 -122,-67 -212,-60 -89,8 -126,-10 -175,-82 -25,-37 -45,-56 -70,-64 -19,-6 -45,-17 -57,-25 -20,-12 -22,-12 -16,1 3,9 22,24 42,34 42,22 60,41 91,98 32,58 68,73 174,73 98,0 142,14 174,55 32,40 28,78 -12,122 -70,80 -75,126 -18,183 32,32 47,39 108,49 85,15 127,38 157,88 26,44 34,27 17,-36 z M 5884,5554 c 9,-24 -13,-47 -30,-33 -10,8 -11,16 -3,30 12,23 25,24 33,3 z m -924,-113 c 22,-10 38,-14 37,-8 -1,6 10,15 25,21 22,8 31,6 48,-9 22,-20 18,-30 -15,-38 -11,-3 1,-5 27,-6 52,-1 78,-9 78,-22 0,-5 -9,-9 -20,-9 -11,0 -20,-4 -20,-10 0,-10 20,-14 53,-12 20,2 23,-28 5,-46 -9,-9 -9,-12 1,-12 11,0 11,-3 1,-15 -9,-11 -8,-18 9,-36 12,-13 21,-26 21,-29 0,-8 -74,-50 -88,-50 -15,0 -24,31 -12,45 6,8 5,18 -4,31 -19,25 -32,11 -43,-46 -7,-36 -13,-46 -31,-48 -30,-4 -77,52 -77,91 0,17 -7,34 -18,41 -18,11 -20,9 -46,-33 -7,-12 -17,-11 -62,4 -30,10 -59,19 -66,21 -7,2 -22,22 -34,46 -12,24 -15,37 -8,31 7,-7 21,-13 30,-13 10,0 31,-11 47,-25 17,-14 38,-25 48,-25 14,0 10,7 -16,29 -32,26 -33,29 -17,45 15,16 19,15 56,-4 22,-11 46,-20 53,-20 7,1 -4,10 -24,21 -48,25 -78,67 -57,79 9,6 21,3 34,-9 25,-23 70,-46 110,-55 38,-10 26,3 -28,29 -28,13 -43,28 -45,43 -4,27 -1,27 48,3 z m -480,-131 c 0,-6 -9,-5 -20,2 -11,7 -20,16 -20,21 0,4 9,3 20,-3 11,-6 20,-15 20,-20 z m 1240,-10 c -6,-10 -27,-32 -48,-47 -20,-15 -59,-47 -86,-70 -54,-48 -66,-52 -66,-22 0,28 18,59 34,59 7,0 21,9 31,20 10,11 26,20 35,20 9,0 29,14 45,30 34,35 72,42 55,10 z m -343,-17 c 2,-6 -15,-25 -39,-42 -50,-37 -58,-29 -29,28 18,35 24,39 43,32 12,-4 24,-13 25,-18 z m -767,-29 c 0,-8 -6,-14 -14,-14 -16,0 -29,27 -20,41 8,13 34,-9 34,-27 z m -167,-5 c 3,-12 10,-18 15,-15 8,5 25,-44 18,-52 -4,-3 -56,72 -56,81 0,16 18,5 23,-14 z m 1304,5 c -3,-3 -12,-4 -19,-1 -8,3 -5,6 6,6 11,1 17,-2 13,-5 z m -789,-78 c 38,-35 92,-131 70,-124 -7,3 -35,31 -61,64 -27,32 -53,58 -58,56 -6,-1 -24,9 -40,22 -16,14 -45,28 -64,32 -19,3 -35,10 -35,14 0,4 35,-1 78,-12 56,-15 86,-29 110,-52 z m 802,44 c -14,-11 -29,-20 -35,-20 -5,0 -20,-8 -32,-18 -21,-16 -22,-20 -12,-92 15,-105 14,-104 44,-84 14,9 25,12 25,7 0,-18 -36,-42 -123,-83 l -87,-40 6,-42 c 3,-24 10,-61 15,-83 4,-23 4,-44 -1,-49 -19,-19 -33,52 -36,179 -1,73 1,108 4,80 8,-57 8,-57 90,-20 l 52,24 -6,88 c -4,48 -8,89 -9,91 -1,1 -22,-7 -46,-18 -87,-39 -91,-21 -5,24 39,21 56,36 57,50 1,17 2,18 6,4 6,-22 9,-22 53,2 47,26 73,26 40,0 z m -367,-7 c -7,-18 -63,-73 -75,-73 -3,0 -23,-22 -42,-49 -31,-42 -43,-50 -79,-56 -23,-4 -45,-12 -48,-17 -4,-6 -15,-2 -28,11 -24,24 -40,29 -21,6 8,-9 8,-15 2,-15 -9,0 -35,31 -55,66 -4,7 25,28 78,54 64,32 92,41 114,37 22,-5 44,2 83,23 62,34 80,37 71,13 z m -613,-21 c 19,-9 44,-31 55,-48 11,-17 34,-35 50,-40 21,-6 33,-18 40,-39 16,-47 24,-55 55,-55 21,0 36,-9 55,-34 14,-19 40,-39 57,-45 33,-12 34,-34 0,-39 -14,-2 -19,-8 -15,-18 3,-8 -23,5 -57,28 -118,81 -119,82 -137,67 -9,-8 -29,-32 -45,-53 -26,-37 -27,-40 -12,-58 20,-21 107,-78 120,-78 5,0 -4,8 -21,19 -16,10 -42,32 -57,48 l -28,29 26,37 c 13,20 29,37 34,37 18,0 71,-53 66,-67 -3,-8 -2,-11 3,-8 18,11 21,-14 7,-57 l -15,-43 25,28 c 13,15 24,35 24,43 0,8 5,14 10,14 6,0 10,-3 10,-6 0,-10 -61,-114 -67,-114 -3,0 -41,25 -84,55 -44,31 -84,53 -89,50 -21,-13 -72,-97 -64,-105 5,-5 23,-11 39,-15 28,-5 28,-5 8,6 -29,15 -29,18 5,57 l 27,32 55,-38 c 41,-29 55,-45 57,-66 1,-14 -2,-24 -8,-21 -5,4 -9,-1 -9,-9 0,-13 -10,-14 -57,-10 -88,8 -153,32 -163,60 -5,13 -35,49 -65,81 -50,50 -95,118 -95,140 0,4 9,-3 20,-17 l 20,-25 -6,33 c -4,19 -2,32 4,32 5,0 12,10 16,23 l 5,22 22,-21 c 24,-24 21,-48 -12,-83 -12,-12 -19,-24 -16,-27 2,-3 20,17 40,45 l 35,49 -25,23 c -14,13 -32,39 -40,57 -12,29 -12,37 1,62 10,21 11,30 2,33 -6,2 -7,8 -3,13 14,15 27,-19 21,-54 -7,-34 15,-72 42,-72 7,0 14,-8 16,-17 2,-12 13,-1 32,35 16,28 35,52 43,52 18,0 18,-1 -22,-66 -27,-47 -32,-61 -22,-72 10,-12 13,-9 20,19 4,19 16,45 27,59 l 19,25 26,-25 c 14,-13 23,-30 21,-37 -3,-7 1,-10 10,-6 27,10 16,-46 -15,-78 -16,-16 -25,-31 -20,-34 9,-6 65,65 75,97 4,15 -4,30 -31,58 -21,21 -42,48 -49,61 -6,12 -25,29 -43,38 -18,9 -33,26 -36,39 -4,21 -2,23 22,17 14,-3 42,-14 61,-23 z m -303,-48 c -6,-6 -47,45 -47,58 0,5 12,-5 26,-22 15,-17 24,-33 21,-36 z m 1315,13 c -11,-25 -23,-59 -27,-76 -8,-37 -45,-68 -57,-48 -11,17 -10,95 2,118 6,10 24,26 40,34 28,14 30,14 31,-2 0,-13 3,-12 10,6 5,13 12,21 15,18 3,-3 -3,-25 -14,-50 z m -469,-53 c -25,-25 -46,-44 -49,-42 -6,6 71,88 83,88 5,0 -10,-21 -34,-46 z m 321,-6 c 11,-42 6,-77 -11,-87 -17,-10 -17,-10 0,-11 9,0 17,-4 17,-8 0,-10 -90,-55 -97,-48 -2,2 -5,32 -6,66 -2,51 1,64 17,76 11,8 29,12 40,9 12,-3 15,-2 7,1 -11,5 -11,8 0,15 21,13 26,11 33,-13 z m -1177,-20 c -3,-7 -5,-2 -5,12 0,14 2,19 5,13 2,-7 2,-19 0,-25 z m 916,-155 c 5,-27 -17,-56 -38,-49 -18,5 -17,37 1,57 23,26 31,24 37,-8 z m 299,-13 c 3,-16 1,-35 -4,-42 -4,-8 -8,4 -8,30 0,49 6,55 12,12 z m -39,-19 c 2,-10 -1,-31 -8,-47 -6,-16 -10,-34 -8,-40 4,-11 -34,-50 -41,-43 -2,2 -9,28 -14,57 -10,54 -9,54 22,73 39,23 42,24 49,0 z"
         id="path1"
         style="fill:#b4b28d;fill-opacity:1" />
      <path
         d="m 4445,7660 c 3,-6 12,-10 18,-10 7,0 30,-9 52,-20 40,-20 64,-21 25,0 -37,20 -101,40 -95,30 z"
         id="path2"
         style="fill:#b4b28d;fill-opacity:1" />
      <path
         d="m 4592,7583 c 26,-50 42,-97 48,-141 11,-86 78,-153 149,-151 l 36,1 -44,9 c -59,11 -109,51 -115,92 -3,17 -8,50 -11,72 -6,37 -49,125 -61,125 -3,0 -4,-3 -2,-7 z"
         id="path3"
         style="fill:#b4b28d;fill-opacity:1" />
      <path
         d="m 5247,7094 c -7,-7 56,-64 72,-64 6,0 28,-15 48,-33 21,-19 46,-37 56,-40 24,-9 18,-41 -8,-45 -23,-4 -45,-29 -45,-51 1,-12 3,-11 12,4 15,26 28,35 55,35 20,0 35,-15 71,-66 11,-17 12,-17 6,6 -4,14 -20,43 -36,65 -25,37 -27,44 -17,73 6,18 15,32 20,32 18,0 8,17 -17,29 -30,13 -48,4 -23,-12 14,-8 15,-15 6,-34 -13,-30 -28,-29 -58,3 -13,14 -41,35 -62,45 -20,11 -43,28 -49,39 -13,21 -21,24 -31,14 z"
         id="path5"
         style="fill:#b4b28d;fill-opacity:1" />
      <path
         d="m 4795,7015 c -20,-24 -35,-50 -33,-57 3,-7 12,0 23,17 10,17 30,42 44,58 13,15 20,27 14,27 -7,0 -28,-20 -48,-45 z"
         id="path6"
         style="fill:#b4b28d;fill-opacity:1" />
      <path
         d="m 5074,6990 c -12,-4 -24,-16 -27,-25 -4,-9 -3,-13 3,-10 6,3 10,-3 10,-15 0,-12 4,-19 9,-15 5,3 12,1 16,-5 3,-5 -1,-10 -9,-10 -9,0 -16,-8 -16,-17 -1,-16 -2,-16 -15,1 -19,26 -19,13 0,-24 11,-22 28,-33 67,-45 28,-8 60,-15 69,-15 43,0 65,89 32,128 -19,22 -91,62 -108,61 -5,0 -19,-4 -31,-9 z"
         id="path8"
         style="fill:#b4b28d;fill-opacity:1" />
      <path
         d="m 4832,6974 c -18,-12 -22,-25 -22,-68 0,-58 10,-69 52,-59 35,9 57,32 70,74 8,30 8,42 -2,54 -16,19 -69,19 -98,-1 z m 0,-69 c -2,-14 -6,-25 -8,-25 -2,0 -4,11 -4,25 0,14 4,25 9,25 4,0 6,-11 3,-25 z"
         id="path9"
         style="fill:#b4b28d;fill-opacity:1" />
      <path
         d="m 5264,6954 c 20,-47 24,-75 16,-108 -6,-27 -3,-44 11,-70 15,-29 16,-36 4,-46 -24,-20 -81,-24 -106,-6 -30,21 -73,21 -90,-1 -11,-13 -11,-17 -1,-20 14,-5 16,-41 3,-62 -7,-11 -11,-9 -20,8 -14,25 -28,27 -53,4 -10,-9 -18,-11 -18,-6 0,17 -31,24 -47,12 -10,-9 -17,-9 -25,-1 -17,17 -44,15 -62,-4 -15,-14 -16,-11 -15,33 1,43 2,45 9,18 7,-25 8,-22 7,20 -2,44 -5,50 -25,53 -13,2 -25,-3 -28,-12 -9,-24 -31,-19 -50,9 -14,22 -15,31 -5,63 7,21 11,53 8,72 l -4,35 -1,-38 c -1,-21 -9,-51 -17,-67 -9,-18 -13,-40 -9,-55 8,-34 52,-67 77,-59 18,6 19,3 14,-36 -7,-52 9,-93 33,-85 11,3 20,-1 24,-10 6,-18 43,-20 48,-3 3,8 11,7 28,-5 15,-11 28,-13 35,-7 7,6 24,6 43,0 18,-5 30,-5 27,0 -3,5 -1,11 5,15 5,3 10,1 10,-4 0,-6 5,-11 10,-11 6,0 10,6 10,14 0,8 9,21 20,29 11,8 23,28 26,45 6,31 26,42 39,21 8,-12 57,-3 98,17 31,17 34,40 10,82 -14,24 -15,36 -7,59 11,30 -7,106 -29,120 -7,4 -8,0 -3,-13 z m -124,-280 c 0,-14 -4,-23 -9,-20 -5,3 -7,15 -4,26 7,28 13,25 13,-6 z m -206,-57 c -3,-9 -10,-17 -15,-17 -14,0 -22,27 -15,47 6,15 8,15 22,2 8,-9 12,-23 8,-32 z m 63,17 c 8,-22 -15,-44 -26,-25 -10,16 -4,41 10,41 5,0 12,-7 16,-16 z m 70,0 c 8,-21 -13,-42 -28,-27 -13,13 -5,43 11,43 6,0 13,-7 17,-16 z"
         id="path10"
         style="fill:#b4b28d;fill-opacity:1" />
      <path
         d="m 5526,6915 c 9,-14 19,-24 21,-21 6,6 -20,46 -30,46 -4,0 0,-11 9,-25 z"
         id="path11"
         style="fill:#b4b28d;fill-opacity:1" />
      <path
         d="m 4933,6884 c -20,-31 -30,-128 -14,-138 6,-4 11,-4 11,1 0,4 5,15 10,23 9,13 13,12 28,-8 15,-20 20,-21 36,-9 17,13 18,18 7,63 -13,53 -36,94 -51,94 -5,0 -17,-12 -27,-26 z"
         id="path12"
         style="fill:#b4b28d;fill-opacity:1" />
      <path
         d="m 4677,6853 c -2,-4 -7,-24 -11,-43 l -6,-35 15,39 c 13,35 15,61 2,39 z"
         id="path13"
         style="fill:#b4b28d;fill-opacity:1" />
      <path
         d="m 5450,6795 c 0,-5 5,-17 10,-25 5,-8 10,-10 10,-5 0,6 -5,17 -10,25 -5,8 -10,11 -10,5 z"
         id="path14"
         style="fill:#b4b28d;fill-opacity:1" />
      <path
         d="m 4635,6706 c 5,-69 29,-137 53,-144 10,-3 8,7 -6,34 -17,36 -35,94 -46,154 -3,14 -3,-6 -1,-44 z"
         id="path15"
         style="fill:#b4b28d;fill-opacity:1" />
      <path
         d="m 5569,6757 c -1,-4 -2,-12 -3,-17 0,-6 -7,-15 -15,-19 -12,-8 -12,-12 2,-25 15,-15 17,-14 23,19 3,20 4,39 0,42 -3,4 -7,3 -7,0 z"
         id="path16"
         style="fill:#b4b28d;fill-opacity:1" />
      <path
         d="m 5460,6656 c 0,-33 -25,-102 -51,-138 -12,-16 -55,-54 -95,-84 -41,-30 -74,-59 -74,-64 0,-42 159,69 198,138 21,39 44,172 28,172 -3,0 -6,-11 -6,-24 z"
         id="path17"
         style="fill:#b4b28d;fill-opacity:1" />
      <path
         d="m 4752,6658 c 9,-7 19,-29 22,-49 4,-21 14,-43 23,-50 15,-12 16,-12 8,6 -4,11 -10,34 -13,50 -6,36 -19,55 -40,55 -14,0 -14,-1 0,-12 z"
         id="path18"
         style="fill:#b4b28d;fill-opacity:1" />
      <path
         d="m 5557,6653 c -4,-3 -7,-13 -7,-22 1,-13 3,-13 11,2 11,19 8,33 -4,20 z"
         id="path19"
         style="fill:#b4b28d;fill-opacity:1" />
      <path
         d="m 5366,6604 c -4,-9 -4,-19 -1,-22 2,-3 7,3 11,12 4,9 4,19 1,22 -2,3 -7,-3 -11,-12 z"
         id="path20"
         style="fill:#b4b28d;fill-opacity:1" />
      <path
         d="m 4606,6564 c -3,-8 -2,-12 4,-9 5,3 24,-1 42,-10 l 33,-16 -28,25 c -33,30 -43,32 -51,10 z"
         id="path21"
         style="fill:#b4b28d;fill-opacity:1" />
      <path
         d="m 5375,6540 c -9,-18 -14,-34 -11,-37 2,-3 12,9 21,27 9,18 14,34 11,37 -2,3 -12,-9 -21,-27 z"
         id="path22"
         style="fill:#b4b28d;fill-opacity:1" />
      <path
         d="m 4805,6531 c 3,-6 25,-20 48,-32 29,-14 36,-15 22,-4 -29,24 -78,49 -70,36 z"
         id="path23"
         style="fill:#b4b28d;fill-opacity:1" />
      <path
         d="m 5260,6505 c -15,-18 -80,-53 -120,-66 l -25,-7 25,-1 c 47,-1 157,66 138,84 -3,3 -11,-2 -18,-10 z"
         id="path24"
         style="fill:#b4b28d;fill-opacity:1" />
      <path
         d="m 5284,6458 -19,-23 23,19 c 21,18 27,26 19,26 -2,0 -12,-10 -23,-22 z"
         id="path25"
         style="fill:#b4b28d;fill-opacity:1" />
      <path
         d="m 5425,6439 c -11,-17 0,-20 21,-4 17,13 17,14 2,15 -9,0 -20,-5 -23,-11 z"
         id="path26"
         style="fill:#b4b28d;fill-opacity:1" />
      <path
         d="m 5185,6404 c -47,-18 -54,-23 -32,-23 31,-1 91,21 101,38 9,14 2,13 -69,-15 z"
         id="path27"
         style="fill:#b4b28d;fill-opacity:1" />
      <path
         d="m 6362,6777 c -17,-21 -24,-61 -13,-87 9,-22 10,-21 10,18 1,24 6,52 11,63 12,22 8,25 -8,6 z"
         id="path28"
         style="fill:#b4b28d;fill-opacity:1" />
      <path
         d="m 5904,6431 c -21,-15 -48,-38 -59,-51 -11,-13 7,-2 40,25 73,58 70,55 63,55 -3,0 -23,-13 -44,-29 z"
         id="path29"
         style="fill:#b4b28d;fill-opacity:1" />
      <path
         d="m 5757,6294 c -43,-38 -55,-44 -95,-45 -42,0 -44,-1 -22,-10 14,-6 42,-8 63,-6 39,5 44,-1 27,-34 -6,-10 -7,-19 -2,-19 9,0 86,150 80,155 -2,2 -25,-17 -51,-41 z"
         id="path30"
         style="fill:#b4b28d;fill-opacity:1" />
      <path
         d="m 5434,6221 c -8,-19 -24,-35 -45,-45 -33,-14 -33,-14 -8,-15 15,-1 38,-11 53,-22 15,-12 30,-18 34,-14 4,3 0,11 -8,15 -43,26 -43,26 -25,53 9,14 15,33 13,43 -2,11 -7,6 -14,-15 z"
         id="path31"
         style="fill:#b4b28d;fill-opacity:1" />
      <path
         d="m 5248,6193 c -38,-40 -58,-73 -58,-95 0,-7 8,-1 17,12 9,14 34,46 56,73 46,56 36,63 -15,10 z"
         id="path32"
         style="fill:#b4b28d;fill-opacity:1" />
      <path
         d="m 5781,6188 c -11,-27 -25,-48 -31,-48 -5,0 -10,-6 -10,-12 0,-7 12,-1 25,15 31,35 36,34 24,-5 -12,-43 -3,-49 14,-9 14,32 14,32 25,9 10,-20 10,-19 5,12 -3,19 -12,46 -19,60 l -12,25 z"
         id="path33"
         style="fill:#b4b28d;fill-opacity:1" />
      <path
         d="m 5314,6198 -19,-23 25,20 c 14,11 27,21 29,22 2,2 0,3 -6,3 -5,0 -18,-10 -29,-22 z"
         id="path34"
         style="fill:#b4b28d;fill-opacity:1" />
      <path
         d="m 5540,6155 c -10,-12 -10,-19 -2,-27 9,-9 12,-8 12,5 0,20 20,22 39,5 11,-11 11,-9 2,10 -14,26 -33,28 -51,7 z"
         id="path35"
         style="fill:#b4b28d;fill-opacity:1" />
      <path
         d="m 5256,6128 c -9,-12 -16,-32 -15,-43 0,-14 2,-16 6,-5 3,8 15,27 25,43 11,15 15,27 9,27 -5,0 -17,-10 -25,-22 z"
         id="path36"
         style="fill:#b4b28d;fill-opacity:1" />
      <path
         d="m 5946,6107 c 3,-10 9,-15 12,-12 3,3 0,11 -7,18 -10,9 -11,8 -5,-6 z"
         id="path37"
         style="fill:#b4b28d;fill-opacity:1" />
      <path
         d="m 5530,6041 c 0,-27 25,-33 46,-10 18,20 6,27 -14,7 -9,-9 -12,-8 -12,5 0,9 -4,17 -10,17 -5,0 -10,-9 -10,-19 z"
         id="path38"
         style="fill:#b4b28d;fill-opacity:1" />
      <path
         d="m 5638,6005 c 2,-25 8,-45 14,-45 5,0 8,8 6,18 -1,9 1,23 5,30 5,7 4,12 -2,12 -6,0 -11,7 -11,15 0,8 -3,15 -8,15 -4,0 -6,-20 -4,-45 z"
         id="path39"
         style="fill:#b4b28d;fill-opacity:1" />
      <path
         d="m 5700,6035 c -14,-16 -10,-18 14,-9 9,3 16,10 16,15 0,14 -16,11 -30,-6 z"
         id="path40"
         style="fill:#b4b28d;fill-opacity:1" />
      <path
         d="m 5316,5990 c -15,-17 -32,-46 -36,-65 -6,-28 -4,-37 17,-55 16,-14 22,-27 18,-38 -16,-41 -17,-78 -1,-91 15,-13 16,-11 8,10 -11,30 4,89 22,89 7,0 21,-9 31,-20 10,-11 31,-20 46,-20 17,0 34,-8 43,-22 l 16,-22 v 22 c 0,12 -7,25 -16,29 -11,4 -13,13 -8,36 4,20 3,27 -5,23 -6,-4 -11,-18 -11,-32 0,-28 -30,-33 -51,-8 -7,8 -26,22 -43,31 -17,9 -34,21 -38,27 -15,22 -8,62 17,99 31,45 29,47 -9,7 z"
         id="path41"
         style="fill:#b4b28d;fill-opacity:1" />
      <path
         d="m 5847,6003 c -3,-5 5,-9 16,-10 12,-1 36,-4 52,-8 30,-6 30,-6 -4,10 -37,16 -57,19 -64,8 z"
         id="path42"
         style="fill:#b4b28d;fill-opacity:1" />
      <path
         d="m 5391,5961 c -8,-5 -9,-11 -3,-15 5,-3 15,1 22,9 14,16 3,20 -19,6 z"
         id="path43"
         style="fill:#b4b28d;fill-opacity:1" />
      <path
         d="m 5165,5906 c -7,-45 1,-115 16,-151 5,-12 6,4 2,40 -4,33 -6,81 -5,108 3,59 -5,61 -13,3 z"
         id="path44"
         style="fill:#b4b28d;fill-opacity:1" />
      <path
         d="m 5814,5896 c -42,-19 -64,-52 -64,-98 0,-53 27,-78 85,-78 56,0 102,37 111,90 l 6,35 -17,-30 c -20,-38 -41,-58 -31,-32 3,10 6,37 6,58 0,27 4,38 11,33 7,-4 10,1 7,12 -4,24 -69,30 -114,10 z m 82,-92 c -4,-13 -11,-24 -17,-24 -6,0 -6,6 1,19 5,11 11,32 11,48 2,25 2,25 6,4 3,-12 2,-34 -1,-47 z"
         id="path45"
         style="fill:#b4b28d;fill-opacity:1" />
      <path
         d="m 5565,5870 c 11,-4 29,-6 41,-3 12,2 28,-3 38,-12 22,-22 22,-102 -1,-127 -20,-23 0,-24 22,-1 13,13 16,29 13,69 -6,71 -19,84 -82,83 -37,0 -46,-3 -31,-9 z"
         id="path46"
         style="fill:#b4b28d;fill-opacity:1" />
      <path
         d="m 5125,5781 c -3,-7 -3,-45 0,-87 6,-57 12,-77 26,-84 24,-13 32,-13 23,3 -4,6 2,3 14,-7 29,-25 28,-18 -8,64 -16,38 -30,74 -30,82 0,23 -17,42 -25,29 z m 29,-107 c 3,-8 2,-12 -4,-9 -6,3 -10,10 -10,16 0,14 7,11 14,-7 z"
         id="path47"
         style="fill:#b4b28d;fill-opacity:1" />
      <path
         d="m 5472,5725 c 0,-16 2,-22 5,-12 2,9 2,23 0,30 -3,6 -5,-1 -5,-18 z"
         id="path48"
         style="fill:#b4b28d;fill-opacity:1" />
      <path
         d="m 5201,5678 c -1,-21 66,-98 84,-98 7,0 -1,15 -19,33 -17,17 -39,43 -48,57 -13,20 -17,21 -17,8 z"
         id="path49"
         style="fill:#b4b28d;fill-opacity:1" />
      <path
         d="m 5866,5671 c -4,-5 3,-7 14,-4 23,6 26,13 6,13 -8,0 -17,-4 -20,-9 z"
         id="path50"
         style="fill:#b4b28d;fill-opacity:1" />
      <path
         d="m 5398,5614 c 3,-17 8,-22 15,-15 11,11 3,41 -11,41 -5,0 -7,-12 -4,-26 z"
         id="path51"
         style="fill:#b4b28d;fill-opacity:1" />
      <path
         d="m 5480,5606 c 0,-2 16,-13 35,-25 33,-19 35,-19 26,-2 -12,22 -61,44 -61,27 z"
         id="path52"
         style="fill:#b4b28d;fill-opacity:1" />
      <path
         d="m 5190,5570 c 0,-14 15,-19 29,-11 9,6 7,10 -8,14 -12,3 -21,1 -21,-3 z"
         id="path53"
         style="fill:#b4b28d;fill-opacity:1" />
      <path
         d="m 5115,5550 c -8,-13 12,-40 31,-40 20,0 17,14 -5,34 -13,12 -21,14 -26,6 z"
         id="path54"
         style="fill:#b4b28d;fill-opacity:1" />
      <path
         d="m 5535,5540 c -3,-5 -1,-10 4,-10 6,0 11,5 11,10 0,6 -2,10 -4,10 -3,0 -8,-4 -11,-10 z"
         id="path55"
         style="fill:#b4b28d;fill-opacity:1" />
      <path
         d="m 5265,5499 c -4,-6 -5,-12 -2,-15 2,-3 7,2 10,11 7,17 1,20 -8,4 z"
         id="path56"
         style="fill:#b4b28d;fill-opacity:1" />
      <path
         d="m 5441,5460 c 0,-3 6,-27 14,-55 13,-48 14,-49 14,-14 1,19 -6,44 -14,55 -8,10 -14,17 -14,14 z"
         id="path57"
         style="fill:#b4b28d;fill-opacity:1" />
      <path
         d="m 5953,5429 c 0,-16 1,-28 2,-26 1,1 7,12 13,24 9,16 9,22 -2,26 -9,4 -13,-4 -13,-24 z"
         id="path58"
         style="fill:#b4b28d;fill-opacity:1" />
      <path
         d="m 4629,4919 -32,-51 52,-51 52,-52 20,25 c 11,14 27,38 35,54 15,28 15,29 -33,77 -26,27 -51,49 -54,49 -4,0 -22,-23 -40,-51 z m 86,-23 39,-33 -28,-38 -29,-37 -35,36 -36,35 17,36 c 9,19 20,35 24,35 5,0 26,-15 48,-34 z"
         id="path67"
         style="fill:#b4b28d;fill-opacity:1" />
      <path
         d="m 4110,6927 c 0,-2 7,-18 16,-36 23,-45 11,-81 -47,-136 -27,-26 -52,-58 -55,-71 -7,-29 12,-80 32,-88 13,-5 12,-2 -1,16 -28,42 -19,74 40,138 60,65 68,96 40,150 -13,26 -25,38 -25,27 z"
         id="path68"
         style="fill:#b4b28d;fill-opacity:1" />
      <path
         d="m 4322,6471 c 18,-16 35,-27 38,-25 5,5 -51,53 -63,54 -4,0 7,-13 25,-29 z"
         id="path69"
         style="fill:#b4b28d;fill-opacity:1" />
      <path
         d="m 4420,6435 c 0,-4 11,-16 24,-26 14,-11 41,-41 60,-68 41,-56 123,-100 154,-82 14,9 12,10 -12,11 -16,0 -39,11 -55,25 -75,73 -171,151 -171,140 z"
         id="path70"
         style="fill:#b4b28d;fill-opacity:1" />
      <path
         d="m 4656,6363 c -4,-15 -2,-30 5,-37 8,-8 10,-7 7,4 -3,8 -1,23 3,32 5,10 5,19 0,22 -5,3 -12,-6 -15,-21 z"
         id="path71"
         style="fill:#b4b28d;fill-opacity:1" />
      <path
         d="m 4396,6361 c 3,-14 6,-50 6,-80 v -56 l 14,35 14,35 -5,-43 c -5,-43 -23,-82 -37,-82 -5,0 -8,-5 -8,-11 0,-21 32,14 52,56 l 18,40 -4,-43 c -2,-24 -12,-52 -22,-63 -9,-10 -15,-22 -12,-25 12,-11 48,56 54,98 7,49 -6,81 -51,133 -25,28 -26,29 -19,6 z"
         id="path72"
         style="fill:#b4b28d;fill-opacity:1" />
      <path
         d="m 4727,6374 c -15,-15 -6,-24 19,-18 17,4 29,2 36,-7 7,-11 8,-9 6,6 -3,20 -46,33 -61,19 z"
         id="path73"
         style="fill:#b4b28d;fill-opacity:1" />
      <path
         d="m 4922,6277 c 36,-35 70,-72 76,-83 11,-19 11,-19 12,1 0,20 -120,145 -141,145 -6,0 17,-29 53,-63 z"
         id="path74"
         style="fill:#b4b28d;fill-opacity:1" />
      <path
         d="m 4811,6305 c 0,-5 6,-19 14,-29 8,-11 15,-15 15,-10 0,6 -7,19 -15,30 -8,10 -14,15 -14,9 z"
         id="path75"
         style="fill:#b4b28d;fill-opacity:1" />
      <path
         d="m 4481,6244 c 0,-11 3,-14 6,-6 3,7 2,16 -1,19 -3,4 -6,-2 -5,-13 z"
         id="path76"
         style="fill:#b4b28d;fill-opacity:1" />
      <path
         d="m 4213,6230 c -12,-5 -29,-20 -38,-34 -16,-23 -15,-26 4,-53 18,-24 19,-33 10,-64 -9,-27 -9,-47 -1,-75 l 11,-39 -5,39 c -4,26 0,52 12,78 16,35 16,39 1,56 -25,27 -21,58 11,81 29,22 29,24 -5,11 z"
         id="path77"
         style="fill:#b4b28d;fill-opacity:1" />
      <path
         d="m 4925,6210 c -3,-5 1,-10 10,-10 9,0 13,5 10,10 -3,6 -8,10 -10,10 -2,0 -7,-4 -10,-10 z"
         id="path78"
         style="fill:#b4b28d;fill-opacity:1" />
      <path
         d="m 4540,6195 c -10,-12 -10,-21 -2,-40 14,-30 47,-33 62,-6 13,25 13,27 -6,45 -20,20 -38,20 -54,1 z m 48,-28 c 2,-12 -3,-17 -17,-17 -12,0 -21,6 -21,13 0,31 32,34 38,4 z"
         id="path79"
         style="fill:#b4b28d;fill-opacity:1" />
      <path
         d="m 4782,6173 c 0,-16 -5,-41 -11,-58 -7,-16 -9,-46 -6,-66 7,-39 -10,-55 -45,-44 -12,4 -34,-8 -65,-35 -58,-50 -83,-49 -108,1 -15,32 -23,38 -64,44 -39,6 -49,4 -67,-15 l -21,-22 22,11 c 12,6 38,11 57,11 31,0 39,-6 61,-40 14,-23 32,-43 40,-47 23,-8 19,-75 -6,-107 -12,-15 -20,-28 -18,-29 2,-1 14,-8 26,-14 32,-18 39,-16 19,5 -15,17 -15,22 -1,55 8,20 15,47 15,60 0,14 17,39 43,65 36,36 49,42 85,42 34,0 45,-5 64,-30 12,-16 26,-30 31,-30 6,0 3,8 -6,18 -38,42 -56,122 -41,180 6,19 13,22 61,22 40,0 53,3 50,13 -2,6 -11,10 -18,8 -8,-2 -22,-6 -31,-8 -9,-3 -24,4 -34,16 -25,28 -33,26 -32,-6 z"
         id="path80"
         style="fill:#b4b28d;fill-opacity:1" />
      <path
         d="m 4950,6173 c 0,-4 5,-15 10,-23 8,-13 10,-13 10,2 0,9 -4,20 -10,23 -5,3 -10,3 -10,-2 z"
         id="path81"
         style="fill:#b4b28d;fill-opacity:1" />
      <path
         d="m 5051,6094 c 0,-11 3,-14 6,-6 3,7 2,16 -1,19 -3,4 -6,-2 -5,-13 z"
         id="path82"
         style="fill:#b4b28d;fill-opacity:1" />
      <path
         d="m 4550,6090 c 0,-13 18,-22 24,-11 3,5 -1,11 -9,15 -8,3 -15,1 -15,-4 z"
         id="path83"
         style="fill:#b4b28d;fill-opacity:1" />
      <path
         d="m 4285,6060 c -8,-25 1,-40 25,-40 22,0 37,37 20,54 -8,8 -10,7 -5,-5 3,-9 -1,-22 -11,-30 -16,-13 -17,-11 -12,14 6,31 -7,37 -17,7 z"
         id="path84"
         style="fill:#b4b28d;fill-opacity:1" />
      <path
         d="m 5016,6025 c 4,-27 8,-52 10,-54 8,-9 2,65 -7,84 -6,13 -7,4 -3,-30 z"
         id="path85"
         style="fill:#b4b28d;fill-opacity:1" />
      <path
         d="m 4942,6005 c 0,-34 -9,-86 -20,-120 -19,-57 -19,-59 -1,-37 34,43 48,131 29,192 -5,18 -7,8 -8,-35 z"
         id="path86"
         style="fill:#b4b28d;fill-opacity:1" />
      <path
         d="m 4103,6015 c 0,-22 2,-30 4,-17 2,12 2,30 0,40 -3,9 -5,-1 -4,-23 z"
         id="path87"
         style="fill:#b4b28d;fill-opacity:1" />
      <path
         d="m 4286,5928 c -9,-21 -16,-50 -16,-66 0,-32 22,-58 40,-47 11,7 12,87 0,125 -7,25 -8,24 -24,-12 z m 17,-84 c -9,-24 -21,2 -15,34 5,25 5,25 13,4 5,-12 6,-29 2,-38 z"
         id="path88"
         style="fill:#b4b28d;fill-opacity:1" />
      <path
         d="m 4130,5883 c 0,-6 8,-21 19,-34 16,-20 21,-21 35,-10 17,15 22,41 7,41 -6,0 -13,-5 -16,-11 -5,-7 -14,-4 -26,7 -10,9 -19,12 -19,7 z"
         id="path89"
         style="fill:#b4b28d;fill-opacity:1" />
      <path
         d="m 4660,5836 c 0,-8 5,-18 10,-21 6,-3 10,1 10,9 0,8 -4,18 -10,21 -5,3 -10,-1 -10,-9 z"
         id="path90"
         style="fill:#b4b28d;fill-opacity:1" />
      <path
         d="m 4914,5788 c -23,-30 -62,-66 -94,-85 -30,-18 -48,-33 -39,-33 32,0 134,78 158,120 33,60 20,59 -25,-2 z"
         id="path91"
         style="fill:#b4b28d;fill-opacity:1" />
      <path
         d="m 4966,5794 c -11,-26 -39,-63 -70,-90 l -51,-46 44,23 c 49,27 72,56 91,112 17,54 8,54 -14,1 z"
         id="path92"
         style="fill:#b4b28d;fill-opacity:1" />
      <path
         d="m 4835,5800 c -3,-6 1,-7 9,-4 18,7 21,14 7,14 -6,0 -13,-4 -16,-10 z"
         id="path93"
         style="fill:#b4b28d;fill-opacity:1" />
      <path
         d="m 4165,5757 c 24,-116 154,-226 265,-226 30,0 24,4 -44,29 -101,38 -157,84 -196,163 -18,34 -29,49 -25,34 z"
         id="path94"
         style="fill:#b4b28d;fill-opacity:1" />
      <path
         d="m 4314,5702 c 14,-16 29,-22 55,-21 l 36,1 -39,9 c -22,5 -47,15 -55,22 -10,7 -8,3 3,-11 z"
         id="path95"
         style="fill:#b4b28d;fill-opacity:1" />
      <path
         d="m 4250,5704 c 0,-17 43,-60 80,-79 42,-22 166,-21 217,0 51,22 36,27 -22,9 -35,-11 -69,-14 -114,-9 -74,7 -111,23 -140,62 -11,15 -21,23 -21,17 z"
         id="path96"
         style="fill:#b4b28d;fill-opacity:1" />
      <path
         d="m 4720,5638 c -14,-6 -41,-10 -60,-9 -26,1 -31,-1 -20,-8 15,-10 113,-7 143,4 9,4 17,11 17,16 0,12 -49,10 -80,-3 z"
         id="path97"
         style="fill:#b4b28d;fill-opacity:1" />
      <path
         d="m 4149,5587 c -10,-21 -10,-33 0,-53 6,-15 15,-24 18,-20 4,3 1,12 -5,18 -16,16 -15,23 2,41 9,8 11,19 6,27 -7,11 -12,7 -21,-13 z"
         id="path99"
         style="fill:#b4b28d;fill-opacity:1" />
      <path
         d="m 4560,5595 c -14,-8 -19,-14 -10,-14 8,0 24,6 34,14 25,19 9,19 -24,0 z"
         id="path100"
         style="fill:#b4b28d;fill-opacity:1" />
      <path
         d="m 4365,5580 c 3,-5 39,-9 78,-9 l 72,2 -50,7 c -72,12 -107,12 -100,0 z"
         id="path103"
         style="fill:#b4b28d;fill-opacity:1" />
      <path
         d="m 4658,5553 c -9,-2 -24,-16 -34,-31 l -17,-27 27,24 c 29,27 43,23 27,-7 -6,-12 -11,-31 -11,-44 1,-17 4,-14 14,15 8,20 19,43 25,51 6,7 8,16 4,19 -7,7 -8,7 -35,0 z"
         id="path105"
         style="fill:#b4b28d;fill-opacity:1" />
      <path
         d="m 4307,5473 c -11,-10 -8,-111 3,-118 6,-4 7,5 4,23 -4,17 -1,32 5,36 7,5 11,-6 12,-31 l 2,-38 6,42 c 4,24 10,46 14,49 3,4 2,15 -4,25 -10,19 -30,25 -42,12 z"
         id="path106"
         style="fill:#b4b28d;fill-opacity:1" />
      <path
         d="m 4261,5390 c 0,-14 4,-34 9,-45 8,-18 9,-18 9,5 0,14 -4,34 -9,45 -8,18 -9,18 -9,-5 z"
         id="path107"
         style="fill:#b4b28d;fill-opacity:1" />
      <path
         d="m 4185,5376 c -6,-8 -41,-53 -78,-101 -38,-48 -87,-119 -110,-157 -51,-86 -124,-155 -206,-194 -33,-16 -61,-35 -61,-42 0,-7 15,-25 33,-41 l 32,-29 3,-573 c 3,-593 -1,-661 -38,-711 -26,-36 -25,-48 5,-48 55,0 105,-46 105,-99 0,-11 3,-26 6,-35 11,-30 24,-16 24,25 v 41 l 31,-26 c 16,-14 63,-67 104,-118 40,-51 87,-110 105,-130 42,-49 86,-110 130,-179 51,-81 171,-239 181,-239 11,0 15,-8 -135,274 -62,116 -127,233 -144,260 -18,28 -32,55 -32,61 0,6 -18,34 -40,64 -22,29 -57,87 -77,129 l -38,76 v 590 c 0,761 2,773 141,1049 46,92 81,167 77,167 -5,0 -13,-6 -18,-14 z"
         id="path108"
         style="fill:#ff83ed;fill-opacity:1" />
      <path
         d="m 8346,5325 c -60,-82 -198,-251 -269,-330 -30,-33 -61,-76 -70,-95 -8,-19 -49,-70 -91,-114 -73,-76 -77,-78 -112,-73 -89,15 -149,88 -159,194 -3,32 -9,74 -12,93 -5,30 -7,32 -13,15 -5,-11 -9,-42 -9,-70 -1,-54 -20,-136 -41,-175 -18,-35 -136,-175 -167,-200 l -26,-21 -29,28 c -36,34 -46,24 -23,-27 22,-49 10,-84 -43,-131 -30,-26 -33,-34 -23,-48 23,-32 44,-87 43,-116 0,-16 9,-59 20,-94 15,-45 19,-78 15,-112 l -6,-49 h 34 c 39,0 87,-36 112,-83 13,-27 15,-50 8,-152 -14,-210 -13,-230 10,-230 19,0 20,7 20,190 0,173 2,190 18,193 15,3 17,-5 17,-67 0,-38 5,-73 10,-76 6,-4 10,12 10,42 0,61 12,82 37,67 16,-10 18,-28 18,-139 0,-94 3,-129 13,-132 9,-4 12,25 12,120 0,102 3,127 16,138 23,19 61,-5 101,-64 41,-61 53,-104 53,-193 0,-72 -11,-110 -51,-179 l -22,-37 -17,22 -17,23 -7,-39 c -15,-78 -88,-170 -124,-157 -34,12 -92,65 -136,123 -57,76 -71,137 -56,235 6,39 15,102 20,140 5,39 12,86 16,105 11,59 -11,22 -49,-81 -20,-53 -58,-150 -85,-215 -27,-66 -58,-141 -68,-169 -29,-79 -101,-190 -147,-228 -23,-19 -69,-49 -102,-68 -123,-68 -503,-344 -491,-356 6,-6 369,180 441,225 29,19 56,30 67,26 12,-3 18,0 18,9 0,17 73,63 116,72 16,4 44,13 62,21 22,11 54,14 105,11 64,-4 76,-8 110,-38 21,-19 39,-43 40,-53 2,-18 -30,-48 -105,-100 -42,-30 -9,-27 52,4 35,18 80,32 103,33 34,2 43,-2 54,-23 14,-28 16,-116 4,-200 -10,-65 1,-99 25,-79 12,10 14,25 8,73 -18,152 -3,249 42,287 10,8 29,32 43,54 14,22 31,40 37,40 13,0 97,97 172,199 29,39 62,73 75,76 18,5 23,14 25,47 2,23 10,47 19,55 15,12 16,-5 10,-204 -5,-182 -3,-217 8,-222 29,-11 33,27 23,189 -5,88 -8,241 -6,340 3,175 4,182 32,238 29,61 29,82 -2,54 -36,-33 -59,-21 -127,66 -39,47 -71,99 -77,123 l -11,42 -35,-15 c -46,-19 -133,-5 -205,34 -66,36 -102,103 -113,211 -8,85 2,92 43,31 15,-23 29,-36 31,-30 2,6 -6,26 -17,44 -43,67 -45,75 -31,102 19,35 74,67 107,63 32,-4 40,-25 43,-113 2,-74 18,-47 19,32 1,28 5,54 10,57 5,4 23,-5 40,-20 37,-31 58,-96 42,-131 -6,-13 -11,-43 -11,-66 0,-24 -6,-67 -14,-97 -24,-94 -1,-80 49,28 20,42 42,83 49,92 7,8 16,34 20,57 8,57 47,137 58,120 4,-6 8,-29 8,-50 0,-23 4,-36 10,-32 6,3 10,49 10,101 0,84 3,101 29,152 37,73 65,107 79,98 16,-9 16,-264 1,-392 -12,-102 -7,-144 16,-144 26,0 33,42 23,135 -11,102 -2,473 12,510 5,14 15,25 21,25 8,0 10,-29 8,-97 -3,-67 -1,-97 8,-100 8,-3 12,33 15,129 3,154 0,145 147,393 92,154 97,165 84,165 -5,0 -31,-29 -57,-65 z"
         id="path109"
         style="fill:#ff83ed;fill-opacity:1" />
      <path
         d="m 3831,5323 c -287,-344 -295,-351 -376,-333 -26,6 -72,23 -103,39 -31,15 -75,34 -97,41 -22,7 -143,59 -268,117 -126,57 -231,102 -234,99 -5,-4 100,-76 154,-105 27,-14 49,-53 58,-104 9,-45 20,-48 29,-7 3,19 12,30 23,30 25,0 201,-107 213,-130 5,-10 10,-37 10,-60 0,-25 4,-39 10,-35 6,3 10,23 10,44 0,21 3,40 6,44 6,6 91,-50 138,-92 41,-37 57,-82 63,-183 5,-76 3,-91 -12,-108 -17,-19 -17,-21 -2,-38 14,-16 17,-43 17,-174 0,-113 -3,-157 -12,-160 -9,-3 -9,-11 1,-35 8,-21 11,-63 8,-134 -7,-132 -7,-139 -1,-286 8,-185 -24,-308 -99,-390 -22,-24 -38,-46 -35,-48 3,-3 24,2 48,10 56,20 66,19 91,-6 17,-17 20,-31 18,-85 -1,-35 1,-67 4,-71 14,-13 21,9 19,53 -2,46 20,104 39,104 31,0 212,-113 467,-291 75,-53 139,-92 141,-86 2,6 -69,81 -157,167 -192,184 -309,312 -330,360 -21,49 -28,264 -22,655 4,267 7,315 18,292 6,-16 12,-34 12,-42 0,-15 18,-30 27,-22 3,3 -7,45 -22,94 -33,107 -42,238 -26,380 18,164 54,257 195,496 15,26 25,47 23,47 -3,0 -24,-21 -46,-47 z"
         id="path110"
         style="fill:#ff83ed;fill-opacity:1" />
      <path
         d="m 1967,5173 c 52,-104 105,-202 118,-219 13,-17 27,-43 31,-58 3,-14 10,-23 15,-21 4,3 16,-9 26,-27 15,-27 18,-63 21,-203 2,-93 8,-174 13,-180 11,-11 11,-11 9,154 -1,107 1,132 12,129 7,-3 21,-27 32,-54 16,-44 17,-70 12,-259 -4,-115 -9,-230 -12,-255 -3,-29 -1,-51 8,-62 17,-23 40,-9 39,23 0,13 -3,125 -6,249 -7,244 -3,272 35,234 29,-28 70,-156 70,-216 0,-41 -3,-49 -17,-47 -36,3 -37,-2 -8,-25 l 30,-24 3,-232 c 3,-202 1,-239 -14,-278 -16,-42 -16,-46 0,-57 11,-8 16,-27 16,-56 0,-71 -29,-227 -51,-280 -20,-46 -87,-119 -109,-119 -6,0 -10,-6 -10,-14 0,-12 7,-13 32,-5 59,17 106,11 119,-13 18,-33 24,-238 9,-334 -13,-90 -8,-127 18,-122 15,3 17,25 13,231 -3,165 -1,227 8,227 6,0 11,-16 11,-37 0,-57 16,-73 24,-24 4,25 12,41 20,41 24,0 98,-35 153,-73 48,-32 79,-34 55,-4 -5,7 -27,55 -50,107 -43,101 -66,196 -60,245 4,30 4,30 25,-15 11,-25 24,-54 28,-65 8,-19 9,-19 13,3 2,13 -13,63 -32,112 -30,72 -37,103 -37,160 -1,39 2,74 5,77 3,3 10,-15 17,-41 6,-25 15,-46 20,-46 15,0 10,33 -14,106 -30,86 -44,271 -26,336 13,49 90,135 110,122 9,-5 10,-45 4,-158 -12,-242 -12,-240 7,-244 25,-5 28,22 20,153 -10,156 -3,270 18,270 12,0 16,-16 18,-73 3,-78 22,-93 22,-17 0,49 16,67 36,41 28,-38 35,-146 26,-371 -9,-212 -11,-223 -41,-298 -31,-78 -40,-137 -21,-137 6,0 10,9 10,20 0,34 28,92 41,84 19,-11 1,-174 -32,-292 -16,-57 -27,-107 -24,-110 3,-3 15,4 28,16 12,11 39,28 58,36 48,20 130,7 231,-35 40,-17 116,-47 168,-66 52,-20 163,-62 245,-94 83,-31 152,-55 154,-54 8,9 -16,26 -126,90 -470,273 -487,291 -505,523 -14,187 -9,251 25,295 27,36 34,57 18,57 -5,0 -14,-7 -21,-15 -7,-8 -16,-12 -21,-9 -5,3 -9,80 -9,172 1,168 7,207 54,314 7,15 3,17 -26,16 -47,-2 -89,23 -137,81 -64,77 -71,95 -71,201 0,65 -3,90 -10,80 -5,-8 -10,-26 -10,-40 0,-56 -23,-105 -73,-157 -53,-56 -137,-123 -154,-123 -6,0 -13,33 -16,73 -4,57 -1,81 14,116 25,57 24,61 -11,61 -30,0 -61,23 -87,66 -11,18 -12,17 -12,-8 -1,-16 -5,-28 -10,-28 -17,0 -138,99 -194,159 -31,34 -75,88 -96,119 -21,31 -81,109 -132,173 -52,64 -109,137 -126,162 -65,94 -49,43 44,-140 z"
         id="path111"
         style="fill:#ff83ed;fill-opacity:1" />
      <path
         d="m 6426,5259 c -55,-183 -124,-336 -173,-385 -28,-28 -32,-37 -23,-53 5,-11 10,-50 10,-88 0,-105 -23,-127 -162,-158 -81,-18 -95,-35 -29,-35 58,0 68,-19 42,-81 -11,-29 -21,-60 -21,-70 0,-23 18,-25 26,-4 13,34 24,-1 24,-76 0,-46 4,-79 10,-79 6,0 10,33 10,80 0,92 19,124 68,118 l 27,-3 -1,-320 c -1,-347 -3,-368 -60,-442 l -25,-33 37,-32 c 20,-18 45,-39 54,-45 26,-18 85,-112 100,-156 15,-47 1,-113 -36,-169 -13,-21 -24,-46 -24,-55 0,-10 -25,-74 -55,-142 -30,-68 -53,-127 -50,-129 3,-3 7,-3 9,-1 14,16 167,268 213,352 77,140 106,180 187,264 38,40 67,75 64,78 -3,3 -21,-2 -41,-10 -20,-8 -45,-15 -56,-15 -28,0 -88,55 -114,104 -21,39 -22,54 -23,342 -3,340 2,407 29,412 12,3 17,-3 17,-22 0,-14 5,-28 10,-31 6,-3 10,4 10,17 0,13 5,30 10,38 21,31 30,-16 30,-157 0,-89 4,-143 10,-143 6,0 10,49 10,128 0,103 4,137 20,181 29,74 66,145 84,160 14,12 18,9 30,-20 12,-29 12,-39 -5,-86 -21,-62 -9,-70 31,-21 25,29 29,31 45,18 15,-12 18,-12 26,3 13,22 37,21 77,-3 56,-35 70,-21 27,26 -38,41 -41,67 -11,111 40,59 32,81 -22,61 -37,-14 -57,-1 -67,43 -4,16 -11,32 -16,35 -16,9 -36,-26 -31,-52 5,-29 -17,-40 -48,-24 -28,15 -33,9 -19,-24 8,-18 9,-30 2,-37 -5,-5 -60,-11 -122,-12 -90,-2 -114,1 -122,13 -12,17 -5,328 11,514 10,106 8,154 -4,115 z"
         id="path115"
         style="fill:#ff83ed;fill-opacity:1" />
      <path
         d="m 7320,5118 c -150,-122 -323,-224 -437,-258 -24,-7 -43,-16 -43,-20 0,-4 20,-13 44,-19 25,-6 58,-22 73,-35 27,-23 28,-29 30,-123 2,-54 5,-216 9,-360 3,-145 3,-274 0,-288 -8,-30 -26,-33 -33,-5 -6,22 -23,27 -23,7 0,-7 13,-39 30,-72 23,-46 29,-74 29,-120 1,-97 -17,-247 -34,-295 -18,-50 -109,-193 -230,-361 -44,-61 -86,-120 -94,-130 -8,-11 -11,-23 -7,-26 4,-4 75,61 159,144 155,153 229,213 266,213 11,0 31,-12 45,-26 l 24,-27 15,29 c 28,56 31,103 32,496 0,218 3,400 7,404 4,4 14,1 23,-6 23,-19 19,5 -7,49 -20,31 -23,52 -26,163 -2,69 1,148 6,174 7,31 7,53 0,63 -6,11 -5,48 5,113 18,116 33,145 147,275 44,51 80,95 80,98 0,13 -20,0 -90,-57 z"
         id="path116"
         style="fill:#ff83ed;fill-opacity:1" />
      <path
         d="m 5280,4780 c 0,-5 24,-72 54,-147 80,-202 100,-337 65,-430 -9,-24 5,-33 15,-10 3,6 4,-29 1,-79 -4,-70 -15,-121 -45,-212 -22,-67 -40,-133 -40,-147 0,-38 22,-26 26,14 2,18 14,55 26,82 18,43 23,48 31,33 13,-24 2,-180 -14,-201 -12,-14 -10,-19 20,-42 95,-72 205,-195 250,-278 14,-27 14,-134 0,-221 -12,-78 -1,-126 29,-120 18,4 18,1 13,266 -3,127 22,206 44,140 8,-23 8,-23 12,2 9,56 14,68 39,93 20,20 30,24 40,16 20,-16 133,-212 157,-271 21,-54 22,-67 14,-358 -2,-49 0,-55 18,-55 17,0 20,6 18,45 -1,25 -3,106 -5,180 -2,130 -1,138 30,230 18,52 47,118 63,148 l 31,53 -39,-7 c -36,-5 -42,-3 -66,25 -44,52 -72,182 -48,219 6,11 10,11 18,0 16,-20 27,-60 24,-92 -2,-36 7,-66 21,-66 21,0 2,113 -31,189 l -33,73 6,217 c 4,119 7,232 7,252 1,43 -20,86 -75,155 -23,28 -46,60 -52,70 -10,17 -16,9 -46,-56 -19,-41 -42,-81 -51,-89 -22,-18 -21,-26 6,-62 22,-30 22,-36 21,-292 0,-179 -5,-274 -13,-299 -15,-45 -23,-47 -38,-10 l -11,27 -1,-33 c -1,-44 -17,-72 -40,-72 -19,0 -98,79 -122,121 -10,19 -13,87 -13,312 0,277 1,288 22,316 l 21,29 -40,28 c -22,15 -101,94 -175,176 -75,81 -138,148 -140,148 -2,0 -4,-4 -4,-10 z"
         id="path125"
         style="fill:#ff83ed;fill-opacity:1" />
      <path
         d="m 3230,4754 c 0,-37 -29,-94 -49,-94 -9,0 -25,7 -35,15 -11,8 -23,15 -28,15 -14,0 -8,-30 12,-58 35,-49 35,-76 -1,-116 -17,-20 -29,-39 -26,-42 2,-3 22,2 42,10 50,21 55,20 55,-8 0,-36 16,-40 39,-9 l 21,28 30,-34 c 36,-42 45,-37 30,18 -12,45 -1,81 25,81 22,0 28,19 8,27 -31,11 -33,27 -7,70 27,46 19,53 -28,26 -28,-17 -30,-17 -42,0 -8,9 -16,35 -20,57 -7,45 -26,55 -26,14 z"
         id="path126"
         style="fill:#ff83ed;fill-opacity:1" />
      <path
         d="m 5182,4764 c -24,-16 -96,-123 -89,-131 3,-2 17,-5 33,-6 25,-2 29,1 26,20 -4,28 23,79 48,93 11,6 20,17 20,25 0,19 -10,19 -38,-1 z"
         id="path127"
         style="fill:#b4b28d;fill-opacity:1" />
      <path
         d="m 4285,4585 c -40,-62 -110,-135 -130,-135 -6,0 -17,12 -23,26 -21,45 -29,17 -15,-58 7,-40 16,-139 18,-220 3,-82 9,-148 12,-148 4,-1 15,32 25,72 20,76 76,190 93,189 19,0 27,-65 15,-118 -12,-54 -7,-77 13,-70 8,2 12,40 12,116 0,100 2,114 19,127 11,8 30,14 42,14 39,0 54,-26 54,-91 0,-33 4,-59 10,-59 6,0 10,23 10,50 0,37 4,50 15,50 18,0 41,-35 48,-77 8,-44 -10,-64 -145,-158 -200,-140 -243,-180 -288,-269 -38,-75 -52,-136 -30,-136 6,0 10,7 10,16 0,8 6,25 13,37 11,19 13,13 17,-53 l 5,-75 53,-27 c 74,-37 153,-98 198,-154 39,-47 39,-48 39,-133 0,-47 -3,-108 -8,-136 -8,-55 2,-81 28,-72 15,6 16,21 9,137 -7,126 -6,130 19,182 34,70 82,116 104,102 9,-5 40,-50 69,-100 84,-143 75,-138 114,-66 18,34 50,78 71,97 45,40 47,45 18,45 -37,0 -95,68 -108,128 -13,62 -14,171 -2,190 11,18 31,-37 31,-85 0,-23 4,-33 13,-30 17,6 11,58 -19,152 -22,68 -27,105 -31,239 -6,182 3,240 48,311 30,47 30,48 7,41 -73,-21 -79,-20 -193,52 -60,39 -132,87 -160,108 -27,22 -53,40 -57,42 -4,2 -24,-22 -43,-53 z m 219,-620 c 3,-31 3,-106 0,-167 -6,-97 -10,-114 -31,-139 -31,-36 -57,-37 -114,-1 -57,36 -99,87 -99,118 0,40 25,89 71,138 34,38 44,44 56,34 11,-9 14,-31 11,-90 -2,-58 0,-78 9,-78 10,0 13,26 13,96 0,93 1,96 30,125 16,17 34,28 38,25 5,-3 12,-31 16,-61 z"
         id="path130"
         style="fill:#ff83ed;fill-opacity:1" />
      <path
         d="m 5175,4631 c -7,-12 59,-26 75,-16 5,3 8,11 5,16 -8,12 -72,12 -80,0 z"
         id="path131"
         style="fill:#b4b28d;fill-opacity:1" />
      <path
         d="m 5145,4563 -120,-4 -20,-37 c -11,-20 -30,-41 -43,-47 -13,-6 -20,-16 -17,-24 3,-7 1,-19 -4,-25 -20,-25 -103,-198 -97,-203 10,-10 34,17 66,73 16,30 37,54 45,54 8,0 15,-2 15,-5 0,-9 -32,-58 -54,-82 -17,-20 -17,-23 -3,-23 9,0 29,18 43,40 27,41 48,54 37,23 -5,-17 -5,-17 8,0 13,16 16,16 52,-8 20,-14 37,-33 37,-43 1,-15 2,-15 15,2 8,10 12,23 9,28 -3,4 -39,31 -80,58 -41,28 -74,54 -74,58 0,5 5,13 11,19 8,8 30,0 82,-33 78,-48 112,-59 56,-19 -19,14 -37,36 -40,48 -8,29 17,87 37,87 14,0 14,-3 4,-15 -7,-8 -8,-15 -2,-15 5,0 16,10 24,21 13,20 15,21 31,5 24,-24 32,-83 18,-123 -14,-39 -12,-46 14,-37 15,6 16,17 10,95 -5,62 -4,89 4,89 13,0 18,-22 26,-114 l 7,-68 41,6 c 23,4 46,11 52,17 12,12 -1,12 -42,0 -27,-8 -32,-6 -37,12 -3,12 -6,46 -6,74 0,45 4,55 25,69 20,13 23,20 14,35 -5,10 -13,18 -17,17 -4,-1 -61,-4 -127,-5 z m -104,-146 c -8,-8 -11,1 -11,29 0,53 14,67 18,19 2,-21 -1,-42 -7,-48 z"
         id="path132"
         style="fill:#b4b28d;fill-opacity:1" />
      <path
         d="m 6740,4380 c -11,-22 -49,-73 -85,-114 -36,-41 -65,-77 -65,-81 0,-4 13,-4 29,0 19,4 32,2 38,-7 4,-7 8,-123 8,-258 v -245 l 45,-95 c 44,-93 45,-97 45,-197 0,-141 19,-139 25,2 6,122 23,171 101,291 21,33 39,63 39,67 0,4 -10,6 -22,4 -15,-1 -27,8 -40,30 -17,29 -19,53 -19,227 1,106 4,201 7,210 9,24 28,14 32,-17 4,-36 22,-24 22,14 0,21 -12,43 -44,77 -24,26 -53,66 -65,90 -12,23 -23,42 -26,42 -3,0 -14,-18 -25,-40 z"
         id="path136"
         style="fill:#ff83ed;fill-opacity:1" />
      <path
         d="m 3162,4286 c -64,-86 -69,-96 -51,-101 35,-11 41,-51 38,-215 -2,-85 -3,-197 -2,-247 3,-88 5,-96 39,-147 45,-68 55,-112 48,-202 -4,-47 -3,-74 4,-78 15,-9 20,19 25,125 3,75 8,94 40,159 21,40 52,91 69,112 17,21 29,40 27,41 -2,2 -16,11 -31,20 -58,36 -65,182 -14,294 35,77 32,120 -4,53 -24,-44 -25,-44 -28,-17 -4,31 24,111 44,128 21,17 17,29 -10,29 -26,0 -48,25 -85,98 -12,23 -25,42 -29,42 -5,0 -40,-43 -80,-94 z"
         id="path137"
         style="fill:#ff83ed;fill-opacity:1" />
      <path
         d="m 5270,4318 c -30,-5 -64,-7 -75,-4 -14,4 -6,-8 23,-35 23,-22 47,-37 53,-34 7,5 5,13 -6,25 -15,17 -13,19 34,31 28,7 51,16 51,21 0,9 -5,9 -80,-4 z"
         id="path138"
         style="fill:#b4b28d;fill-opacity:1" />
      <path
         d="m 5295,4174 c -31,-12 -81,-15 -224,-13 l -183,3 -24,-39 c -56,-90 -96,-166 -91,-172 3,-3 25,2 49,10 77,28 106,29 119,6 6,-12 9,-37 7,-55 -2,-21 0,-33 6,-31 6,2 12,21 14,43 2,21 7,43 12,48 17,17 149,11 201,-9 12,-4 25,8 50,47 19,29 56,81 82,115 50,66 48,71 -18,47 z"
         id="path143"
         style="fill:#ff83ed;fill-opacity:1" />
      <path
         d="m 5275,3950 c -3,-6 -32,-28 -63,-50 -31,-21 -68,-48 -81,-58 l -24,-19 43,-39 c 75,-68 100,-97 130,-158 30,-60 38,-109 20,-136 -7,-12 -10,-11 -16,5 -19,57 -58,133 -89,175 -39,54 -177,164 -196,158 -9,-3 -6,-11 9,-26 12,-12 22,-25 22,-28 0,-3 -15,-24 -34,-46 l -34,-39 49,-65 c 27,-36 49,-70 49,-75 0,-15 18,-1 32,24 10,20 9,21 -5,9 -13,-11 -20,-7 -51,34 -40,52 -44,74 -18,96 45,40 95,23 146,-50 28,-41 28,-42 10,-69 -9,-16 -38,-48 -63,-73 -25,-25 -74,-76 -109,-113 -35,-37 -66,-67 -68,-67 -2,0 -4,11 -4,25 0,16 21,47 60,91 33,36 60,69 60,74 0,8 -44,73 -78,116 l -24,29 -34,-38 c -19,-20 -36,-37 -39,-37 -13,0 -2,31 23,66 l 29,39 -44,53 c -23,30 -43,59 -43,65 0,5 2,8 4,6 103,-119 92,-115 136,-54 12,17 10,16 -11,-3 l -26,-23 -37,41 c -26,29 -36,49 -36,73 v 32 l -25,-30 c -23,-28 -24,-29 -25,-7 0,20 -19,30 -32,16 -3,-3 0,-32 8,-64 7,-32 18,-88 24,-125 6,-37 24,-93 40,-125 22,-44 31,-78 36,-142 4,-54 13,-94 25,-114 14,-23 19,-51 19,-105 0,-60 5,-83 25,-121 14,-26 32,-78 39,-115 31,-146 73,-196 119,-145 19,21 71,174 87,257 7,33 22,85 35,115 13,30 31,95 41,145 9,49 25,106 35,125 30,54 26,147 -7,191 -14,19 -30,44 -35,56 -5,15 -14,21 -24,17 -21,-8 -19,12 6,52 11,19 19,39 17,46 -2,6 -14,-5 -27,-25 -12,-20 -26,-37 -30,-37 -4,0 -20,14 -37,31 l -29,30 35,29 c 24,20 37,25 42,17 6,-9 8,-8 8,1 0,9 7,11 20,7 23,-7 25,-2 10,26 -9,16 -7,19 10,19 13,0 20,7 20,20 0,21 -15,27 -25,10 z m -395,-270 c -10,-18 -14,-20 -21,-9 -5,8 -9,27 -9,44 v 29 l 21,-21 c 18,-17 19,-24 9,-43 z m 97,-72 c 49,-55 51,-82 8,-130 -31,-35 -49,-37 -41,-3 4,17 2,24 -6,23 -6,-2 -15,15 -20,40 -8,34 -6,49 7,68 19,30 26,30 52,2 z m 243,-39 c 0,-13 -62,-89 -73,-89 -5,0 -7,10 -5,23 2,14 9,21 21,21 10,-1 16,3 14,10 -5,12 21,46 35,46 4,0 8,-5 8,-11 z m 7,-97 c -14,-20 -62,-80 -106,-132 -69,-80 -84,-106 -104,-167 -24,-80 -40,-89 -45,-26 -3,37 5,53 73,153 96,142 187,244 198,223 6,-9 0,-27 -16,-51 z m -97,3 c 10,-13 11,-18 1,-28 -10,-9 -15,-8 -26,7 -23,31 1,50 25,21 z m 130,-62 c 0,-20 -3,-24 -11,-16 -7,7 -9,19 -6,27 10,24 17,19 17,-11 z m -177,-6 c -3,-7 -13,-23 -22,-36 l -15,-23 -8,23 c -7,18 -4,27 14,40 24,18 43,16 31,-4 z m 161,-21 c 13,-21 14,-29 2,-63 l -13,-38 -18,37 c -15,30 -16,42 -7,63 14,31 16,31 36,1 z m -49,-70 c 11,-31 23,-56 27,-56 21,0 3,-36 -42,-84 -27,-29 -50,-59 -50,-67 0,-8 7,-33 15,-57 21,-60 7,-75 -18,-18 -11,25 -23,46 -26,46 -4,0 -20,-13 -36,-30 -16,-16 -33,-30 -38,-30 -15,0 2,50 28,84 22,29 22,33 9,64 -8,20 -11,40 -6,49 7,12 12,8 21,-16 23,-54 33,-55 84,-3 l 47,47 -25,49 c -24,48 -33,92 -17,82 5,-3 17,-30 27,-60 z m -172,26 c 2,-11 -6,-37 -19,-58 -24,-40 -34,-41 -13,-1 7,12 12,34 11,49 -1,31 13,38 21,10 z m -36,-24 c -3,-8 -6,-5 -6,6 -1,11 2,17 5,13 3,-3 4,-12 1,-19 z m 182,-36 c 12,-26 5,-47 -28,-76 -17,-15 -23,-16 -35,-6 -27,21 -28,48 -5,79 26,35 53,36 68,3 z m -59,-261 c 15,-29 13,-54 -5,-47 -13,5 -13,2 1,-19 11,-17 14,-36 10,-59 -8,-40 -30,-64 -42,-45 -4,7 0,17 9,24 23,17 21,28 -2,15 -24,-12 -29,-5 -37,55 -6,39 -3,49 16,70 28,30 36,31 50,6 z"
         id="path149"
         style="fill:#b4b28d;fill-opacity:1" />
    </g>
  </g>
</svg>
